<svg width="24" height="24" viewBox="0 0 24 24" fill="#707070" xmlns="http://www.w3.org/2000/svg">
<path d="M3.70685 6.29309L6.29285 3.70709C6.48038 3.51962 6.73468 3.41431 6.99985 3.41431C7.26501 3.41431 7.51932 3.51962 7.70685 3.70709L13.2928 9.29309C13.4803 9.48062 13.5856 9.73493 13.5856 10.0001C13.5856 10.2653 13.4803 10.5196 13.2928 10.7071L10.7068 13.2931C10.5193 13.4806 10.265 13.5859 9.99985 13.5859C9.73468 13.5859 9.48038 13.4806 9.29285 13.2931L3.70685 7.70709C3.51938 7.51957 3.41406 7.26526 3.41406 7.00009C3.41406 6.73493 3.51938 6.48062 3.70685 6.29309Z" fill="#707070" stroke="#707070" stroke-width="1.125" stroke-linecap="round" stroke-linejoin="round"/>
<path d="M6 10L3 13L6 16L9 13M10 6L13 3L16 6L13 9M12 12L13.5 13.5ZM14.5 17C15.163 17 15.7989 16.7366 16.2678 16.2678C16.7366 15.7989 17 15.163 17 14.5M15 21C16.5913 21 18.1174 20.3679 19.2426 19.2426C20.3679 18.1174 21 16.5913 21 15" fill="#707070"/>
<path d="M6 10L3 13L6 16L9 13M10 6L13 3L16 6L13 9M12 12L13.5 13.5M14.5 17C15.163 17 15.7989 16.7366 16.2678 16.2678C16.7366 15.7989 17 15.163 17 14.5M15 21C16.5913 21 18.1174 20.3679 19.2426 19.2426C20.3679 18.1174 21 16.5913 21 15" stroke="#707070" stroke-width="1.125" stroke-linecap="round" stroke-linejoin="round"/>
</svg>
