<svg width="23" height="26" viewBox="0 0 23 26" fill="none" xmlns="http://www.w3.org/2000/svg">
<path d="M4.98158 5.81926C5.2732 2.84717 7.786 0.742432 10.7893 0.742432H12.6019C15.6051 0.742432 18.1179 2.84717 18.4096 5.81926L19.0157 12.3466C19.2354 14.5863 20.1851 16.8578 21.7202 18.5113C22.4876 19.338 21.8979 21.0497 20.7665 21.0497H2.62466C1.49323 21.0497 0.903547 19.338 1.67098 18.5113C3.20603 16.8578 4.1557 14.5863 4.37546 12.3466L4.98158 5.81926Z" stroke="white" stroke-width="1.05634" stroke-linejoin="round"/>
<path d="M8.47688 21.0497H14.9143V21.4124C14.9143 23.2148 13.4732 24.676 11.6956 24.676C9.91794 24.676 8.47688 23.2148 8.47688 21.4124V21.0497Z" stroke="white" stroke-width="1.05634" stroke-linejoin="round"/>
</svg>
