<svg width="24" height="24" viewBox="0 0 24 24" fill="none" xmlns="http://www.w3.org/2000/svg">
<path d="M12 5.18136V19.352M10.4519 19.5657L11.5909 19.8416C11.7421 19.8782 11.8177 19.8965 11.8942 19.904C11.9646 19.9108 12.0354 19.9108 12.1058 19.904C12.1823 19.8965 12.2579 19.8782 12.4091 19.8416L13.5481 19.5657C13.9274 19.4738 14.1171 19.4279 14.3058 19.3891C15.7535 19.0921 17.2465 19.0921 18.6942 19.3891C18.8829 19.4279 19.0726 19.4738 19.4519 19.5657C19.6329 19.6095 19.7234 19.6315 19.7963 19.639C20.3826 19.6999 20.9113 19.2844 20.9902 18.7008C21 18.6281 21 18.5351 21 18.349V5.99868C21 5.7364 21 5.60526 20.975 5.49056C20.9038 5.16411 20.6867 4.88832 20.386 4.74227C20.2803 4.69095 20.1527 4.66005 19.8976 4.59826C19.0753 4.39905 18.6641 4.29945 18.2516 4.23241C17.0915 4.04383 15.9085 4.04383 14.7484 4.23241C14.3359 4.29945 13.9247 4.39905 13.1024 4.59826L12.4091 4.76619C12.2579 4.80282 12.1823 4.82113 12.1058 4.82858C12.0354 4.83543 11.9646 4.83543 11.8942 4.82858C11.8177 4.82113 11.7421 4.80281 11.5909 4.76619L10.8977 4.59825C10.0753 4.39905 9.66415 4.29944 9.25173 4.2324C8.09154 4.0438 6.90846 4.04379 5.74827 4.23238C5.33585 4.29942 4.92468 4.39902 4.10234 4.59822C3.84726 4.66001 3.71972 4.69091 3.61405 4.74222C3.31331 4.88827 3.09621 5.16407 3.02501 5.49053C3 5.60523 3 5.73636 3 5.99862V18.349C3 18.5351 3 18.6281 3.00982 18.7008C3.08875 19.2844 3.61738 19.6999 4.20365 19.639C4.27663 19.6315 4.36712 19.6095 4.54811 19.5657C4.92742 19.4738 5.11708 19.4279 5.30582 19.3891C6.75351 19.0921 8.24649 19.0921 9.69418 19.3891C9.88292 19.4279 10.0726 19.4738 10.4519 19.5657Z" stroke="#707070" stroke-width="1.5" stroke-linecap="round" stroke-linejoin="round"/>
</svg>
